# AST/ASF file generated using VICON BodyLanguage
# -----------------------------------------------
:version 1.10
:name VICON
:units
  mass 1.0
  length 0.45
  angle deg
:documentation
   .ast/.asf automatically generated from VICON data using
   VICON BodyBuilder and BodyLanguage model FoxedUp or BRILLIANT.MOD
:root
   order TX TY TZ RX RY RZ
   axis XYZ
   position 0 0 0  
   orientation 0 0 0 
:bonedata
  begin
     id 1 
     name lhipjoint
     direction 0.535335 -0.74333 0.401095 
     length 2.04549 
     axis 0 0 0  XYZ
  end
  begin
     id 2 
     name lfemur
     direction 0.34202 -0.939693 0  
     length 6.95643  
     axis 0 0 20  XYZ
    dof rx ry rz
    limits (-160.0 20.0)
           (-70.0 70.0)
           (-60.0 70.0)
  end
  begin
     id 3 
     name ltibia
     direction 0.34192 -0.939729 0   
     length 5.55969   
     axis 0 0 20   XYZ
    dof rx
    limits (-10.0 170.0)
  end
  begin
     id 4 
     name lfoot
     direction 0.216943 -0.596046 0.773088   
     length 2.27918   
     axis -90 7.62852e-016 20   XYZ
    dof rx rz
    limits (-45.0 90.0)
           (-70.0 20.0)
  end
  begin
     id 5 
     name ltoes
     direction 1.53519e-011 -4.21748e-011 1   
     length 1.05562   
     axis -90 7.62852e-016 20   XYZ
    dof rx
    limits (-90.0 20.0)
  end
  begin
     id 6 
     name rhipjoint
     direction -0.576368 -0.719173 0.38806   
     length 2.1142  
     axis 0 0 0  XYZ 
  end
  begin
     id 7 
     name rfemur
     direction -0.34202 -0.939693 0   
     length 7.07928   
     axis 0 0 -20   XYZ
    dof rx ry rz
    limits (-160.0 20.0)
           (-70.0 70.0)
           (-70.0 60.0)
  end
  begin
     id 8 
     name rtibia
     direction -0.34202 -0.939693 0   
     length 5.79974   
     axis 0 0 -20   XYZ
    dof rx
    limits (-10.0 170.0)
 end
 begin
     id 9 
     name rfoot
     direction -0.189288 -0.520065 0.832888   
     length 2.42173  
     axis -90 -7.62852e-016 -20   XYZ
    dof rx rz
    limits (-45.0 90.0)
           (-20.0 70.0)
  end
  begin
     id 10 
     name rtoes
     direction -1.53574e-011 -4.21658e-011 1   
     length 1.14469   
     axis -90 -7.62852e-016 -20   XYZ
    dof rx
    limits (-90.0 20.0)
  end
  begin
     id 11 
     name lowerback
     direction -0.00135702 0.993803 0.111144   
     length 1.91308   
     axis 0 0 0   XYZ
    dof rx ry rz
    limits (-20.0 45.0)
           (-30.0 30.0)
           (-30.0 30.0)
  end
  begin
     id 12 
     name upperback
     direction -0.0056745 0.999813 0.0184631   
     length 1.9212   
     axis 0 0 0   XYZ
    dof rx ry rz
    limits (-20.0 45.0)
           (-30.0 30.0)
           (-30.0 30.0)
  end
  begin
     id 13 
     name thorax
     direction -0.00733434 0.999426 -0.0330788   
     length 1.94196   
     axis 0 0 0   XYZ
    dof rx ry rz
    limits (-20.0 45.0)
           (-30.0 30.0)
           (-30.0 30.0)
  end
  begin
     id 14 
     name lowerneck
     direction 0.0563074 0.996944 -0.0541571   
     length 2.34257   
     axis 0 0 0   XYZ
    dof rx ry rz
    limits (-20.0 45.0)
           (-30.0 30.0)
           (-30.0 30.0)
  end
  begin
     id 15 
     name upperneck
     direction -0.0544519 0.976166 -0.210085   
     length 2.32506   
     axis 0 0 0   XYZ
    dof rx ry rz
    limits (-20.0 45.0)
           (-30.0 30.0)
           (-30.0 30.0)
  end
  begin
     id 16
     name head
     direction -0.0226035 0.997615 -0.0652205  
     length 2.3648  
     axis 0 0 0   XYZ
    dof rx ry rz
    limits (-20.0 45.0)
           (-30.0 30.0)
           (-30.0 30.0)
  end
  begin
     id 17 
     name lclavicle
     direction 0.92109 0.381297 -0.0787716  
     length 4.0487  
     axis 0 0 0   XYZ
    dof ry rz
    limits (-20.0 10.0)
           (0.0 20.0)
  end
  begin
     id 18 
     name lhumerus
     direction 1 -4.48986e-011 3.56724e-027   
     length 4.94991   
     axis 180 -30 -90   XYZ
    dof rx ry rz
    limits (-60.0 90.0)
           (-90.0 90.0)
           (-90.0 90.0)
  end
  begin
     id 19
     name lradius
     direction 1 -4.48981e-011 8.62147e-027   
     length 2.7606   
     axis 180 -30 -90   XYZ
    dof rx
    limits (-10.0 170.0)
  end
  begin
     id 20
     name lwrist
     direction 1 -4.48989e-011 1.59799e-026   
     length 1.3803   
     axis -1.17785e-014 90 90   XYZ
    dof ry
    limits (-180.0 0.0)
 end
  begin
     id 21 
     name lhand
     direction 1 -4.48896e-011 3.19599e-026   
     length 0.843936   
     axis -2.03931e-014 90 90   XYZ
    dof rx rz
    limits (-90.0 90.0)
           (-45.0 45.0)
  end
  begin
     id 22 
     name lfingers
     direction 1 -4.48887e-011 6.39197e-026   
     length 0.680403   
     axis -4.07862e-014 90 90   XYZ
    dof rx
    limits (0.0 90.0)
  end
  begin
     id 23
     name lthumb
     direction 0.707107 -6.348e-011 0.707107   
     length 0.976926   
     axis -90 45 2.85299e-015   XYZ
    dof rx rz
    limits (-45.0 45.0)
           (-45.0 45.0)
  end
  begin
     id 24 
     name rclavicle
     direction -0.951104 0.307692 -0.026953   
     length 4.21801  
     axis 0 0 0   XYZ 
    dof ry rz
    limits (-10.0 20.0)
           (-20.0 0.0)
  end
  begin
     id 25 
     name rhumerus
     direction -1 -4.4896e-011 -1.8171e-018  
     length 4.32982   
     axis 180 30 90   XYZ
    dof rx ry rz
    limits (-90.0 60.0)
           (-90.0 90.0)
           (-90.0 90.0)
  end
  begin
     id 26 
     name rradius
     direction -1 -4.48959e-011 8.25165e-027   
     length 3.20057   
     axis 180 30 90   XYZ
    dof rx
    limits (-10.0 170.0)
  end
  begin
     id 27 
     name rwrist
     direction -1 -4.48997e-011 1.59799e-026   
     length 1.60029   
     axis -1.17785e-014 -90 -90   XYZ
    dof ry
    limits (-180.0 0.0)
  end
  begin
     id 28
     name rhand
     direction -1 -4.49023e-011 3.19599e-026   
     length 0.960433   
     axis -2.03931e-014 -90 -90   XYZ
    dof rx rz
    limits (-90.0 90.0)
           (-45.0 45.0)
  end
  begin
     id 29
     name rfingers
     direction -1 -4.48802e-011 6.39197e-026   
     length 0.774326   
     axis -4.07862e-014 -90 -90   XYZ
    dof rx
    limits (0.0 90.0)
  end
  begin
     id 30
     name rthumb
     direction -0.707107 -6.34876e-011 0.707107   
     length 1.11178   
     axis -90 -45 -2.85299e-015   XYZ
    dof rx rz
    limits (-45.0 45.0)
           (-45.0 45.0)
  end
:hierarchy
  begin
    root lhipjoint rhipjoint lowerback
    lhipjoint lfemur
    lfemur ltibia
    ltibia lfoot
    lfoot ltoes
    rhipjoint rfemur
    rfemur rtibia
    rtibia rfoot
    rfoot rtoes
    lowerback upperback
    upperback thorax
    thorax lowerneck lclavicle rclavicle
    lowerneck upperneck
    upperneck head
    lclavicle lhumerus
    lhumerus lradius
    lradius lwrist
    lwrist lhand lthumb
    lhand lfingers
    rclavicle rhumerus
    rhumerus rradius
    rradius rwrist
    rwrist rhand rthumb
    rhand rfingers
end

#!OML:ASF C:\KaitlinTest1\Natural Motions\Nikki\Session 2\Nikki.ASF
:FULLY-SPECIFIED
:DEGREES
197
root -14.524 13.77 4.97897 60.7602 85.7472 25.9214
lowerback 14.5328 -1.32059 -4.30158
upperback -6.26559 -2.84372 -1.41509
thorax -15.1585 -0.952615 1.59856
lowerneck -38.7812 -30.313 8.58375
upperneck -0.435875 -61.4839 4.20115
head 198.938 184.878 24.8431
rclavicle -1.43125e-014 1.43125e-014
rhumerus -15.7923 20.1022 -85.7043
rradius 53.2689
rwrist -17.0341
rhand -52.7012 17.2681
rfingers 7.12502
rthumb -25.1795 -11.0911
lclavicle -1.43125e-014 1.43125e-014
lhumerus -9.48183 -3.22811 75.5898
lradius 55.2702
lwrist 33.1394
lhand -44.6346 11.5311
lfingers 7.12502
lthumb -17.432 40.7695
rfemur -79.4958 -1.05629 18.3803
rtibia 83.7534
rfoot -29.4679 -8.0713
rtoes -3.60993e-013
lfemur -78.2162 1.95549 -23.1162
ltibia 77.8986
lfoot -21.7019 3.39124
ltoes -1.78111e-013
198
root -14.5042 13.8317 4.98213 58.551 85.9499 24.2641
lowerback 13.7863 -1.37885 -4.15324
upperback -6.19452 -2.82629 -1.28251
thorax -14.6033 -0.968738 1.63401
lowerneck -38.1638 -30.3807 8.27938
upperneck -0.714773 -61.2934 4.38652
head 198.847 185.04 24.0362
rclavicle -5.60573e-014 -9.54166e-015
rhumerus -10.573 21.5104 -83.1912
rradius 56.3712
rwrist -17.2707
rhand -52.7898 16.0938
rfingers 7.12502
rthumb -25.2644 -12.2533
lclavicle -5.60573e-014 -9.54166e-015
lhumerus -4.10385 -4.20776 74.0517
lradius 58.3516
lwrist 35.005
lhand -45.5048 11.0997
lfingers 7.12502
lthumb -18.2693 40.2618
rfemur -78.4841 -1.11119 18.6635
rtibia 83.0401
rfoot -28.9809 -7.74836
rtoes -1.63799e-013
lfemur -77.2207 2.06981 -22.9272
ltibia 77.1876
lfoot -21.1418 3.37369
ltoes -4.13472e-014
199
root -14.4762 13.9024 4.98539 54.231 86.2098 20.5335
lowerback 13.0348 -1.42478 -3.95587
upperback -6.08074 -2.77937 -1.09453
thorax -13.9983 -0.974365 1.6942
lowerneck -37.7025 -30.4229 8.04559
upperneck -0.963699 -61.2079 4.57352
head 198.775 185.328 23.3175
rclavicle 3.29983e-014 2.22639e-014
rhumerus -5.25707 22.5743 -80.3476
rradius 59.1772
rwrist -17.1716
rhand -53.2888 16.7731
rfingers 7.12502
rthumb -25.7423 -11.5057
lclavicle 3.29983e-014 2.22639e-014
lhumerus 1.02217 -4.4607 72.5793
lradius 61.6345
lwrist 36.5663
lhand -46.0973 8.40291
lfingers 7.12502
lthumb -18.8392 37.5106
rfemur -77.3127 -1.15331 19.1322
rtibia 82.1979
rfoot -28.5038 -7.35102
rtoes 2.3218e-013
lfemur -76.1347 2.28865 -22.6036
ltibia 76.4139
lfoot -20.4315 3.3201
ltoes 2.46493e-013
200
root -14.448 14.0049 4.98315 51.3735 86.3061 18.1768
lowerback 12.3228 -1.42635 -3.8323
upperback -6.04856 -2.70439 -0.990175
thorax -13.5215 -0.958749 1.69727
lowerneck -37.1047 -30.4768 7.70209
upperneck -1.22858 -61.0201 4.76361
head 198.751 185.131 22.6126
rclavicle -2.0276e-014 -6.2816e-014
rhumerus -0.202756 23.3218 -77.2665
rradius 62.4079
rwrist -18.4126
rhand -53.7785 16.949
rfingers 7.12502
rthumb -26.2113 -11.261
lclavicle -2.0276e-014 -6.2816e-014
lhumerus 6.24788 -4.90335 70.682
lradius 64.2982
lwrist 36.6868
lhand -49.1039 9.6472
lfingers 7.12502
lthumb -21.7288 38.4477
rfemur -76.0798 -1.36405 19.4896
rtibia 81.1358
rfoot -27.8823 -6.87798
rtoes -2.36951e-013
lfemur -74.9791 2.46656 -22.5274
ltibia 75.4369
lfoot -19.7572 3.23669
ltoes -2.3059e-013
201
root -14.4083 14.0986 4.97856 46.5892 86.4078 13.8015
lowerback 11.2354 -1.45215 -3.75311
upperback -5.85913 -2.6408 -0.807381
thorax -12.6272 -0.953778 1.7988
lowerneck -36.9256 -30.4362 7.66411
upperneck -1.44521 -61.1607 5.01181
head 198.741 185.481 22.0493
rclavicle -7.95139e-016 -3.33958e-014
rhumerus 4.83356 23.7176 -73.8772
rradius 65.9024
rwrist -18.8929
rhand -54.4992 16.2324
rfingers 7.12502
rthumb -26.901 -11.8732
lclavicle -7.95139e-016 -3.33958e-014
lhumerus 11.3584 -4.84854 68.6082
lradius 67.8884
lwrist 37.4614
lhand -48.8677 11.3429
lfingers 7.12502
lthumb -21.5019 40.1695
rfemur -74.8848 -1.57003 19.9798
rtibia 80.0062
rfoot -27.2938 -6.33144
rtoes 8.90555e-014
lfemur -73.8526 2.73164 -22.3721
ltibia 74.4132
lfoot -19.0718 3.17507
ltoes -1.24042e-013
202
root -14.3617 14.2138 4.97109 41.7299 86.3611 9.3483
lowerback 10.211 -1.44258 -3.83488
upperback -5.71601 -2.56375 -0.63046
thorax -11.8293 -0.925782 1.98284
lowerneck -36.7817 -30.3307 7.6964
upperneck -1.63173 -61.2773 5.24332
head 198.73 185.822 21.5361
rclavicle 4.53229e-014 -1.27222e-014
rhumerus 9.38777 23.562 -70.571
rradius 69.6217
rwrist -19.4077
rhand -55.1421 15.6849
rfingers 7.12502
rthumb -27.516 -12.3245
lclavicle 4.53229e-014 -1.27222e-014
lhumerus 16.1098 -4.52403 66.422
lradius 71.6892
lwrist 38.1912
lhand -48.8654 13.765
lfingers 7.12502
lthumb -21.4997 42.5918
rfemur -73.5785 -1.78053 20.3726
rtibia 78.6273
rfoot -26.5704 -5.5035
rtoes 3.97569e-014
lfemur -72.5695 3.0083 -22.2533
ltibia 73.1513
lfoot -18.3191 3.1607
ltoes 5.24792e-014
203
root -14.309 14.3316 4.96009 37.4365 86.1888 5.17168
lowerback 8.82741 -1.40068 -3.93756
upperback -5.61468 -2.42882 -0.473162
thorax -10.8735 -0.873208 2.13423
lowerneck -36.73 -30.1261 7.74139
upperneck -1.85696 -61.0009 5.4443
head 198.669 185.603 21.1772
rclavicle -4.37326e-015 -1.59028e-015
rhumerus 13.6164 22.9497 -67.1903
rradius 73.2744
rwrist -19.321
rhand -55.6906 14.7658
rfingers 7.12502
rthumb -28.0405 -13.1589
lclavicle -4.37326e-015 -1.59028e-015
lhumerus 20.6417 -3.94032 64.1544
lradius 75.503
lwrist 38.9275
lhand -49.0277 15.2974
lfingers 7.12502
lthumb -21.6556 44.1063
rfemur -72.53 -2.03344 20.737
rtibia 77.1661
rfoot -25.7834 -4.63524
rtoes -1.27222e-013
lfemur -71.5187 3.33344 -22.2553
ltibia 71.7875
lfoot -17.4993 3.09767
ltoes -1.01778e-013
204
root -14.2453 14.471 4.94248 33.2761 86.0444 1.37726
lowerback 7.89005 -1.29315 -3.74709
upperback -5.48063 -2.19793 -0.370908
thorax -10.1763 -0.79182 2.06469
lowerneck -36.6272 -30.1049 7.64946
upperneck -2.25022 -61.0094 5.83231
head 198.672 185.559 20.5765
rclavicle 5.1684e-015 -2.38542e-015
rhumerus 17.2616 22.2629 -63.582
rradius 77.5579
rwrist -21.9998
rhand -55.9138 16.8829
rfingers 7.12502
rthumb -28.2538 -11.0067
lclavicle 5.1684e-015 -2.38542e-015
lhumerus 24.9201 -3.36801 61.6861
lradius 79.3545
lwrist 39.8871
lhand -49.6484 15.0747
lfingers 7.12502
lthumb -22.2516 43.8137
rfemur -71.0468 -2.41636 21.1483
rtibia 75.4471
rfoot -24.82 -3.71498
rtoes -7.31528e-014
lfemur -70.0066 3.57836 -22.1583
ltibia 70.1568
lfoot -16.6562 2.99958
ltoes 8.90555e-014
205
root -14.1791 14.6118 4.93167 31.5011 85.7697 -0.513547
lowerback 6.32207 -1.17859 -3.75408
upperback -5.48424 -1.95488 -0.288855
thorax -9.25703 -0.690497 2.07133
lowerneck -36.5547 -30.1649 7.49691
upperneck -2.44911 -61.156 6.03234
head 198.708 185.744 20.2055
rclavicle 3.43897e-014 2.0276e-014
rhumerus 20.6479 20.9486 -59.9759
rradius 81.3569
rwrist -22.3178
rhand -56.4082 16.6836
rfingers 7.12502
rthumb -28.7263 -11.1269
lclavicle 3.43897e-014 2.0276e-014
lhumerus 28.6668 -2.40569 59.1838
lradius 83.4001
lwrist 40.9257
lhand -49.7579 15.3094
lfingers 7.12502
lthumb -22.3567 44.0358
rfemur -69.9991 -2.72882 21.3658
rtibia 73.5827
rfoot -23.804 -2.73974
rtoes -2.33771e-013
lfemur -68.9552 3.85008 -22.2024
ltibia 68.315
lfoot -15.661 2.82293
ltoes -1.33583e-013
206
root -14.0948 14.777 4.91352 27.957 85.6214 -3.61086
lowerback 5.33955 -1.04953 -3.4379
upperback -5.29844 -1.69326 -0.199085
thorax -8.49275 -0.599789 1.92609
lowerneck -36.5952 -30.2058 7.36971
upperneck -2.71226 -61.2549 6.28726
head 198.731 185.876 19.8313
rclavicle 1.98785e-014 1.98785e-015
rhumerus 23.7867 19.1573 -56.4664
rradius 84.7221
rwrist -21.9539
rhand -56.4328 17.3782
rfingers 7.12502
rthumb -28.7498 -10.4283
lclavicle 1.98785e-014 1.98785e-015
lhumerus 32.1291 -0.974233 56.531
lradius 87.0327
lwrist 42.2625
lhand -49.8262 13.8238
lfingers 7.12502
lthumb -22.4223 42.5424
rfemur -68.1053 -3.31416 21.829
rtibia 71.4454
rfoot -22.644 -1.61874
rtoes 2.3059e-013
lfemur -67.0206 4.08817 -22.0618
ltibia 66.1569
lfoot -14.5158 2.54706
ltoes 2.25819e-013
207
root -14.0016 14.971 4.90287 26.7497 85.2736 -4.12306
lowerback 4.7749 -0.92283 -3.39471
upperback -5.36339 -1.49641 -0.276805
thorax -8.24516 -0.510892 1.78351
lowerneck -35.9115 -30.2982 7.11378
upperneck -2.45812 -61.4748 6.05934
head 198.822 186.109 19.6951
rclavicle 1.33186e-014 1.23246e-014
rhumerus 26.0375 17.5183 -53.5908
rradius 88.035
rwrist -21.2743
rhand -56.535 16.7835
rfingers 7.12502
rthumb -28.8473 -11.0064
lclavicle 1.33186e-014 1.23246e-014
lhumerus 34.5125 0.116647 53.4228
lradius 90.7659
lwrist 43.7407
lhand -51.5029 9.10497
lfingers 7.12502
lthumb -24.0309 37.6205
rfemur -65.782 -3.92763 22.0845
rtibia 69.0436
rfoot -21.4154 -0.410614
rtoes -9.06458e-014
lfemur -64.5299 4.43904 -22.128
ltibia 63.6698
lfoot -13.2912 2.18955
ltoes -6.04305e-014
208
root -13.904 15.172 4.88325 26.8787 84.7617 -3.31664
lowerback 4.18365 -0.751878 -3.33297
upperback -5.45759 -1.24316 -0.450292
thorax -8.01858 -0.396508 1.52661
lowerneck -35.1295 -30.3644 6.84263
upperneck -2.18699 -61.4957 5.77317
head 198.858 186.234 19.5253
rclavicle 1.37161e-014 1.98785e-015
rhumerus 27.7163 15.5447 -51.426
rradius 91.2233
rwrist -20.3773
rhand -56.5488 17.2841
rfingers 7.12502
rthumb -28.8606 -10.5036
lclavicle 1.37161e-014 1.98785e-015
lhumerus 36.7039 2.04826 50.8244
lradius 94.4594
lwrist 43.5708
lhand -50.8857 10.2954
lfingers 7.12502
lthumb -23.439 38.8878
rfemur -63.4239 -4.59766 22.1353
rtibia 66.3954
rfoot -19.7464 1.04035
rtoes 3.97569e-014
lfemur -61.9829 4.81602 -22.3687
ltibia 60.8953
lfoot -11.9286 1.83869
ltoes 6.36111e-015
209
root -13.7906 15.3885 4.86418 25.3381 84.3072 -4.0777
lowerback 3.48537 -0.583981 -2.97125
upperback -5.44206 -0.972702 -0.710966
thorax -7.61456 -0.298056 1.01164
lowerneck -34.3619 -30.389 6.75222
upperneck -1.81339 -61.7722 5.47935
head 198.93 186.588 19.398
rclavicle -1.05356e-014 -2.90226e-014
rhumerus 28.9333 13.6255 -49.2088
rradius 94.2186
rwrist -19.9121
rhand -56.885 18.0789
rfingers 7.12502
rthumb -29.1817 -9.65343
lclavicle -1.05356e-014 -2.90226e-014
lhumerus 38.8016 4.30803 48.4573
lradius 97.6369
lwrist 43.053
lhand -49.9415 11.9014
lfingers 7.12502
lthumb -22.5329 40.6065
rfemur -60.7445 -5.36007 22.3609
rtibia 63.458
rfoot -18.0737 2.57821
rtoes -5.56597e-014
lfemur -59.154 5.25548 -22.459
ltibia 57.8017
lfoot -10.2436 1.387
ltoes -1.04958e-013
210
root -13.6717 15.6185 4.84957 23.3973 83.7499 -4.91363
lowerback 3.08621 -0.337241 -2.60524
upperback -5.27642 -0.617581 -1.046
thorax -7.22327 -0.160724 0.418384
lowerneck -33.5827 -30.347 6.76265
upperneck -1.39419 -62.044 5.1863
head 199 186.726 19.2653
rclavicle 1.88845e-014 -5.56597e-015
rhumerus 29.5953 11.6291 -47.3213
rradius 97.011
rwrist -19.4584
rhand -57.6016 19.0021
rfingers 7.12502
rthumb -29.8658 -8.6094
lclavicle 1.88845e-014 -5.56597e-015
lhumerus 40.7869 6.69798 46.8326
lradius 100.194
lwrist 41.9078
lhand -48.5367 12.1825
lfingers 7.12502
lthumb -21.184 41.0451
rfemur -57.584 -6.17307 22.5804
rtibia 60.2382
rfoot -16.2548 4.31512
rtoes 8.90555e-014
lfemur -55.7705 5.91256 -22.5445
ltibia 54.4074
lfoot -8.42289 0.837675
ltoes -2.54444e-014
